<svg xmlns="http://www.w3.org/2000/svg" xmlns:xlink="http://www.w3.org/1999/xlink" width="297" height="264" viewBox="0 0 297 264">
    <defs>
        <linearGradient id="a" x1="36.208%" x2="43.529%" y1="15.796%" y2="88.525%">
            <stop offset="0%" stop-color="#FAFAFA"/>
            <stop offset="100%" stop-color="#F5F5F5"/>
        </linearGradient>
        <path id="b" d="M219.072 81.45c70.981 0 93.472 13.04 67.473 39.117-39 39.117-92.632 32.114-80.052 66.17 12.579 34.054 129.942-2.472 72.323 48.632-57.62 51.103-333.485 17.914-269.155-37.781 64.33-55.695 73.699-80.234 45.596-80.234-28.104 0-86.135-16.716-29.504-70.548 56.63-53.832 190.813-59.457 167.535-25.96-23.277 33.499-52.829 47.84-23.277 54.222 19.701 4.255 36.055 6.383 49.06 6.383z"/>
        <filter id="c" width="289.9%" height="316.3%" x="-94.9%" y="-108.2%" filterUnits="objectBoundingBox">
            <feGaussianBlur in="SourceAlpha" result="shadowBlurInner1" stdDeviation="275"/>
            <feOffset dy="-14" in="shadowBlurInner1" result="shadowOffsetInner1"/>
            <feComposite in="shadowOffsetInner1" in2="SourceAlpha" k2="-1" k3="1" operator="arithmetic" result="shadowInnerInner1"/>
            <feColorMatrix in="shadowInnerInner1" values="0 0 0 0 0 0 0 0 0 0 0 0 0 0 0 0 0 0 0.02 0"/>
        </filter>
        <linearGradient id="d" x1="58.09%" x2="54.34%" y1="85.768%" y2="-16.233%">
            <stop offset="0%" stop-color="#BE2624"/>
            <stop offset="45.708%" stop-color="#E42E2C"/>
            <stop offset="100%" stop-color="#FD4846"/>
        </linearGradient>
        <linearGradient id="e" x1="97.832%" x2="33.059%" y1="42.547%" y2="52.987%">
            <stop offset="0%" stop-color="#2A2D72"/>
            <stop offset="100%" stop-color="#1E1F4B"/>
        </linearGradient>
        <linearGradient id="f" x1="61.251%" x2="50%" y1="12.303%" y2="86.566%">
            <stop offset="0%"/>
            <stop offset="100%" stop-color="#494974"/>
        </linearGradient>
        <linearGradient id="g" x1="36.208%" x2="43.529%" y1="41.1%" y2="60.024%">
            <stop offset="0%" stop-color="#FAFAFA"/>
            <stop offset="100%" stop-color="#F5F5F5"/>
        </linearGradient>
        <path id="h" d="M.159 12.041L50.372.048l-29.09 22.483-2.812-9.114z"/>
        <filter id="i" width="1223.2%" height="2608.6%" x="-561.6%" y="-1254.3%" filterUnits="objectBoundingBox">
            <feGaussianBlur in="SourceAlpha" result="shadowBlurInner1" stdDeviation="275"/>
            <feOffset dy="-14" in="shadowBlurInner1" result="shadowOffsetInner1"/>
            <feComposite in="shadowOffsetInner1" in2="SourceAlpha" k2="-1" k3="1" operator="arithmetic" result="shadowInnerInner1"/>
            <feColorMatrix in="shadowInnerInner1" values="0 0 0 0 0 0 0 0 0 0 0 0 0 0 0 0 0 0 0.02 0"/>
        </filter>
    </defs>
    <g fill="none" fill-rule="evenodd">
        <g>
            <use fill="url(#a)" xlink:href="#b"/>
            <use fill="#000" filter="url(#c)" xlink:href="#b"/>
        </g>
        <path fill="#F1F1F1" d="M261.868 171.723c-.104 29.42-47.528 25.207-49.494 7.77-1.966-17.435 49.599-37.19 49.494-7.77z"/>
        <path stroke="#DDDDE7" stroke-dasharray="5.50000011920929,5.50000011920929" stroke-linecap="round" stroke-width="1.65" d="M85.525 172.92c-.505-3.349-21.1-3.08-21.1-28.25s17.045-17.64 23.684-20.86c10.218-4.956 18.873 1.958 19.71 9.07 2.67 22.694-60.528 8.785-46.275-11.418 14.252-20.202 58.473-12.324 97.007-35.28 25.689-15.305 39.954-27.509 42.797-36.612"/>
        <path fill="#FFF" d="M108.9 38.407c1.118 19.489 5.346 30.617 12.683 33.385 7.308-2.005 14.852-4.483 22.632-7.434-6.296-5.272-10.38-9.836-12.252-13.692-1.872-3.856-3.042-10.11-3.51-18.766L108.9 38.407zM40.7 70.867c1.466 10.764 3.683 16.518 6.652 17.262 2.969.744 8.705.67 17.208-.22-2.824-2.206-4.561-5.828-5.212-10.866-.651-5.037-.908-7.21-.769-6.517l-17.879.341z"/>
        <path fill="#DDDDE7" d="M49.248 88.467c1.643.094 2.899-.996 3.769-3.271.869-2.275 1.417-3.742 1.643-4.401h14.453c.536 2.02.477 3.639-.177 4.858-.653 1.218-1.854 2.197-3.603 2.935l-16.085-.12z"/>
        <g opacity=".496">
            <path fill="#FFF" d="M248.868 100.189c2.353 11.838 2.105 18.685-.744 20.54-2.85 1.856-8.903 3.854-18.158 5.994 2.168-3.339 2.683-7.772 1.545-13.3-1.138-5.529-1.655-7.904-1.55-7.126l18.907-6.108z"/>
            <path fill="#DDDDE7" d="M246.254 121.77c-1.692.694-3.406.003-5.142-2.073-1.737-2.076-2.843-3.419-3.319-4.029l-15.184 5.228c.168 2.316.816 3.996 1.943 5.04 1.127 1.044 2.743 1.637 4.848 1.78l16.854-5.946z"/>
        </g>
        <g transform="translate(72.6 82.5)">
            <path fill="#DDDDE7" d="M27.28 62.48h10.56v73.04H27.28zM106.48 62.48h10.56v73.04h-10.56zM17.6 135.52l2.91 45.41h9.638l1.46-45.41zM110.88 135.52l2.91 45.41h9.638l1.46-45.41z"/>
            <path fill="#FFF" d="M9.68 125.565l2.543 9.955 122.306 1.479 2.751-11.434z"/>
            <path fill="#DDDDE7" d="M9.68 125.565l5.048-4.205h117.178l5.374 4.205"/>
            <path fill="#FFF" d="M8.8 65.092h129.36l2.42 13.2H5.22z"/>
            <path fill="#DDDDE7" d="M8.8 65.092l4.755-2.612h120.507l4.098 2.612zM8.8 95.92l4.755-2.612h120.507l4.098 2.612z"/>
            <path fill="#FFF" d="M8.8 95.92h129.36l-5.394 13.2H13.626z"/>
            <path fill="#FFB5AA" d="M86.312 18.458c2.519 1.164 3.446 2.381 2.783 3.65-.995 1.903-.761 4.553-1.882 5.174-.747.414-1.541.754-2.383 1.02l-.808-5.256 3.191-3.267-.9-1.321z"/>
            <path fill="#3E3978" d="M54.118 122.539c6.928 2.017 13.186 3.026 18.774 3.026 8.382 0 23.314-3.234 25.101-4.788 1.192-1.035 2.524-8.585 3.997-22.65l-14.03-4.82H66.157l-17.512 6.894 5.473 22.338z"/>
            <path fill="#E22E2C" d="M151.058 26.05c.74.79-1.052 2.215-5.378 4.277l-5.133 2.197c-1.977 13.576-4.258 23.293-6.844 29.15-1.162 2.63-3.788 6.285-7.877 10.963l-.388.441a3.52 3.52 0 0 1-2.918 1.181c-16.806-1.33-26.053-4.26-27.74-8.79-2.616-7.025-1.047-19.985 5-20.603 3.031-.31 4.85 4.052 10.632 9.897.518.524 2.714 2.274 6.586 5.25l.336.257a3.52 3.52 0 0 0 3.88.27c3.469-1.969 5.483-3.392 6.045-4.27 4.237-6.63 9.79-25.928 10.386-26.682.162-.508.71-1.18 1.337-1.461.27-.122 1.222-.283 2.853-.484.425-.235 1.414-1.375 1.65-.95.235.425-.078 1.513-.503 1.748l-.781.387a14.01 14.01 0 0 0 2.269-.428c3.2-.923 5.971-3.007 6.588-2.35zM.162 26.05c-.74.79 1.052 2.215 5.378 4.277l5.133 2.197c1.977 13.576 4.259 23.293 6.845 29.15 1.161 2.63 3.787 6.285 7.877 10.963l.388.441A3.52 3.52 0 0 0 28.7 74.26c16.806-1.33 26.052-4.26 27.74-8.79 2.615-7.025 1.046-19.985-5-20.603-3.031-.31-4.85 4.052-10.632 9.897-.519.524-2.714 2.274-6.586 5.25l-.336.257a3.52 3.52 0 0 1-3.881.27c-3.468-1.969-5.483-3.392-6.044-4.27-4.237-6.63-9.79-25.928-10.386-26.682-.163-.508-.711-1.18-1.338-1.461-.27-.122-1.221-.283-2.853-.484-.425-.235-1.413-1.375-1.649-.95-.235.425.078 1.513.503 1.748l.78.387a14.01 14.01 0 0 1-2.268-.428c-3.2-.923-5.972-3.007-6.589-2.35z"/>
            <path fill="url(#d)" d="M52.337 43.498c9.967-3.854 17.677-5.491 23.129-4.911 8.177.87 11.937 1.152 15.86 2.806 2.615 1.102 5.73 2.271 9.346 3.507-1.96 16.228-3.19 27.97-3.692 35.229-.501 7.258-.501 13.33 0 18.215-4.95 4.652-11.594 6.977-19.93 6.977s-16.269-1.706-23.799-5.12c.964-5.987.964-12.677 0-20.072s-2.738-18.584-5.324-33.568l4.41-3.063z"/>
            <path fill="#FFB5AA" d="M151.058 26.05c.74.79-1.052 2.215-5.378 4.277l-5.133 2.197c-1.977 13.576-4.258 23.293-6.844 29.15-1.162 2.63-3.788 6.285-7.877 10.963l-.388.441a3.52 3.52 0 0 1-2.918 1.181c-4.02-.318-7.608-.728-10.764-1.23l2.84-14.873a526.21 526.21 0 0 0 2.402 1.856l.336.258a3.52 3.52 0 0 0 3.88.27c3.469-1.969 5.483-3.392 6.045-4.27 4.237-6.63 9.79-25.928 10.386-26.682.162-.508.71-1.18 1.337-1.461.27-.122 1.222-.283 2.853-.484.425-.235 1.414-1.375 1.65-.95.235.425-.078 1.513-.503 1.748l-.781.387a14.01 14.01 0 0 0 2.269-.428c3.2-.923 5.971-3.007 6.588-2.35zM.162 26.05c.617-.657 3.388 1.427 6.589 2.35a14.01 14.01 0 0 0 2.269.428l-.781-.387c-.425-.235-.738-1.323-.503-1.748.236-.425 1.224.715 1.65.95 1.63.2 2.582.362 2.852.484.627.282 1.175.953 1.338 1.461.596.754 6.149 20.051 10.386 26.681.561.879 2.576 2.302 6.044 4.27a3.52 3.52 0 0 0 3.88-.269l.337-.258c.7-.539 1.347-1.037 1.938-1.496l3.122 14.542c-3.11.489-6.639.889-10.582 1.201a3.52 3.52 0 0 1-2.918-1.18l-.388-.442c-4.09-4.678-6.716-8.332-7.877-10.964-2.586-5.856-4.868-15.573-6.845-29.15L5.54 30.328C1.214 28.265-.578 26.84.162 26.05zM50.147 167.98l.667 5.112h9.396l-.838-7.652z"/>
            <path fill="url(#e)" d="M47.52 178.18c2.351-4.754 4.904-6.966 7.659-6.636 4.131.494 10.174 3.556 9.099 6.636H47.52z"/>
            <path fill="#7575A7" d="M47.52 178.221h16.72v2.64H47.52z"/>
            <path fill="#FFB5AA" d="M97.417 167.1l-.667 5.112h-9.396l.838-7.652z"/>
            <path fill="url(#e)" d="M83.16 177.3c2.351-4.754 4.904-6.966 7.658-6.636 4.132.494 10.175 3.556 9.1 6.636H83.16z" transform="matrix(-1 0 0 1 183.204 0)"/>
            <path fill="#7575A7" d="M100.044 177.341h-16.72v2.64h16.72z"/>
            <path fill="#FFF" d="M65.5 41.138l.94 8.283 4.277-4.662 3.351-.681-4.651-2.31.358-4.984c-1.445.384-2.45.863-3.013 1.436-.563.574-.984 1.547-1.262 2.918z"/>
            <path fill="#FFF" d="M85.36 40.434l-1.641 8.283-7.469-4.661-2.77.285 5.042-3.277-.626-4.984c2.524.384 4.277.863 5.26 1.437.984.573 1.718 1.546 2.204 2.917z"/>
            <path fill="#FFB5AA" d="M69.27 34.943c-.427 3.209-.889 5.064-1.384 5.566-.744.752 1.933 3.569 4.8 3.569s9.653-1.401 10.262-2.485c.609-1.084-1.147-5.954-1.147-10.1 0-4.147.161 1.086-2.2 2.268-1.573.788-5.017 1.182-10.331 1.182z"/>
            <path fill="#F2978A" d="M79.602 33.76c2.36-1.181 2.2-6.414 2.2-2.268 0 1.322.178 2.717.401 4.039-1.18 1.535-3.158 2.324-6.385 3.01-3.3.701-4.994.023-6.79-1.957.083-.5.163-1.048.242-1.64 5.314 0 8.758-.395 10.332-1.183z"/>
            <path fill="#FFB5AA" d="M64.966 15.828c-.4 7.99-.013 13.178 1.163 15.566 1.763 3.582 3.039 5.105 7.351 5.105 4.312 0 6.575-.566 8.07-2.796 1.494-2.23 3.28-3.61 3.28-5.4V13.674L75.114 8.34 67.827 9.46l-3.587 2.166.726 4.202z"/>
            <path fill="url(#f)" d="M63.237 17.457c-.84-.383 1.777-1.836 0-4.677-1.777-2.84.847-6.683 1.818-7.457.97-.773 5.622-3.819 6.697-3.428 1.074.39-3.056-1.317 0-1.611 3.056-.295 6.257-.725 7.726.866 1.47 1.591 1.382 2.096 2.038 2.383.657.287 1.725.907 1.725-.738s-.94-3.252 0-2.511c.94.74 3.508 2.182 2.792 4.71-.716 2.527 3.124-1.02 4.761 2.403 1.638 3.424-.06 10.69-1.492 11.764-1.43 1.074-3.646 1.93-3.646 3.03 0 1.102.46 3.37-.584 3.37-1.045 0-.933-.511-1.83-2.597-.898-2.086-.798-5.106-.798-6.21 0-1.103.632-2.338.632-3.18 0-.842-1.02 1.483-2.309 2.381-1.289.898-5.392.801-6.457-.621-1.065-1.422-6.443-1.782-7.283-.58-.701 1.004-3.06 3.037-3.79 2.703z"/>
            <path fill="#F2978A" d="M87.06 21.539c-.668.97-.928 1.77-.78 2.395.148.627.313 1.169.494 1.627.382-1.254.525-2.192.43-2.815-.096-.623-.144-1.026-.144-1.207z"/>
            <path stroke="#44446C" stroke-linecap="round" stroke-width=".55" d="M70.4 23.76h8.8l6.404-1.953"/>
            <circle cx="66.44" cy="23.32" r="3.96" fill="#FFC6BE" stroke="#44446C" stroke-width=".55"/>
            <circle cx="76.12" cy="23.32" r="3.96" fill="#FFC6BE" stroke="#44446C" stroke-width=".55"/>
            <path stroke="#44446C" stroke-linecap="round" stroke-linejoin="round" stroke-width=".55" d="M70.4 31.486c1.95-.495 3.622-.495 5.018 0"/>
            <path fill="#6D68A8" d="M88.075 101.622c.298-4.956 3.23-7.728 8.793-8.314 8.345-.88 9.612 1.818 11.063 5.692.967 2.583-2.037 26.186-9.013 70.81l-13.3-1.401 2.457-66.787zM59.317 101.622c-.298-4.956-3.229-7.728-8.793-8.314-8.345-.88-9.772 1.306-11.062 5.692-.86 2.924 2.144 26.527 9.012 70.81l13.3-1.401-2.457-66.787z"/>
        </g>
        <g>
            <g transform="rotate(11 -41.897 1049.942)">
                <use fill="url(#g)" xlink:href="#h"/>
                <use fill="#000" filter="url(#i)" xlink:href="#h"/>
            </g>
            <path fill="#DDDDE7" d="M216.124 53.962l-.83-9.92 33.921-7.107z"/>
        </g>
    </g>
</svg>
